<svg aria-hidden="true" style="position: absolute; width: 0; height: 0; overflow: hidden;"
    version="1.1" xmlns="http://www.w3.org/2000/svg" xmlns:xlink="http://www.w3.org/1999/xlink">
    <defs>
        <symbol id="flag-kingdom" viewBox="0 0 32 32">
            <path fill="#00247d" style="fill: var(--color1, #00247d)" d="M0 8.052v3.503h5.003zM4.146 27.556h7.41v-5.188zM20.444 22.368v5.188h7.409zM0 20.444v3.503l5.004-3.503zM27.855 4.444h-7.411v5.188zM32 23.948v-3.504h-5.005zM32 11.556v-3.503l-5.004 3.503zM11.556 4.444h-7.41l7.41 5.188z"></path>
            <path fill="#cf1b2b" style="fill: var(--color2, #cf1b2b)" d="M22.347 20.444l8.633 6.045c0.409-0.421 0.715-0.945 0.874-1.53l0.006-0.025-6.413-4.491h-3.1zM11.556 20.444h-1.903l-8.632 6.044c0.463 0.471 1.057 0.808 1.723 0.964l8.812-6.171v-0.838zM20.444 11.556h1.903l8.632-6.044c-0.458-0.464-1.042-0.803-1.698-0.96l-0.024-0.005-8.813 6.171v0.838zM9.652 11.556l-8.632-6.044c-0.409 0.422-0.715 0.946-0.875 1.53l-0.006 0.025 6.413 4.49h3.1z"></path>
            <path fill="#eee" style="fill: var(--color3, #eee)" d="M32 18.667h-13.333v8.889h1.778v-5.188l7.409 5.188h0.591c0 0 0 0 0.001 0 0.993 0 1.89-0.408 2.534-1.065l0.001-0.001-8.633-6.045h3.1l6.413 4.491c0.083-0.3 0.14-0.61 0.14-0.935v-0.052l-5.005-3.504h5.005v-1.778zM0 18.667v1.778h5.004l-5.004 3.503v0.052c0 0.97 0.39 1.847 1.020 2.489l8.632-6.044h1.903v0.838l-8.812 6.17c0.261 0.062 0.532 0.103 0.812 0.103h0.59l7.41-5.188v5.188h1.778v-8.889h-13.333zM32 8c0-0.001 0-0.001 0-0.002 0-0.969-0.39-1.848-1.021-2.487l0 0-8.632 6.044h-1.903v-0.838l8.813-6.171c-0.243-0.062-0.523-0.099-0.811-0.102h-0.591l-7.411 5.188v-5.188h-1.778v8.889h13.333v-1.778h-5.004l5.004-3.503v-0.052zM11.556 4.444v5.188l-7.41-5.188h-0.59c-0 0-0.001 0-0.002 0-0.993 0-1.89 0.408-2.533 1.066l-0.001 0.001 8.632 6.044h-3.1l-6.413-4.49c-0.084 0.279-0.135 0.6-0.14 0.932l-0 0.003v0.052l5.003 3.503h-5.003v1.778h13.333v-8.889h-1.778z"></path>
            <path fill="#cf1b2b" style="fill: var(--color2, #cf1b2b)" d="M18.667 13.333v-8.889h-5.333v8.889h-13.333v5.333h13.333v8.889h5.333v-8.889h13.333v-5.333z"></path>
        </symbol>
        <symbol id="flag-ukraine" viewBox="0 0 32 32">
            <path fill="#005bbb" style="fill: var(--color4, #005bbb)" d="M28.444 4.444h-24.889c-1.964 0-3.556 1.592-3.556 3.556v0 8h32v-8c0-1.964-1.592-3.556-3.556-3.556v0z"></path>
            <path fill="#ffd500" style="fill: var(--color5, #ffd500)" d="M32 24c0 1.964-1.592 3.556-3.556 3.556v0h-24.889c-1.964 0-3.556-1.592-3.556-3.556v0-8h32v8z"></path>
            </symbol>
        <symbol id="flag-germany" viewBox="0 0 32 32">
            <path fill="#ffcd05" style="fill: var(--color6, #ffcd05)" d="M0 24c0 1.964 1.592 3.556 3.556 3.556v0h24.889c1.964 0 3.556-1.592 3.556-3.556v0-3.556h-32v3.556z"></path>
            <path fill="#ed1f24" style="fill: var(--color7, #ed1f24)" d="M0 12.444h32v8h-32z"></path>
            <path fill="#141414" style="fill: var(--color8, #141414)" d="M28.444 4.444h-24.889c-1.964 0-3.556 1.592-3.556 3.556v0 4.444h32v-4.444c0-1.964-1.592-3.556-3.556-3.556v0z"></path>
            </symbol>
    </defs>
</svg>